<?xml version="1.0" encoding="UTF-8"?>
<svg id="Layer_1" data-name="Layer 1" xmlns="http://www.w3.org/2000/svg" viewBox="0 0 2000 2000">
  <defs>
    <style>
      .cls-1 {
        fill: #80b2ff;
      }

      .cls-2 {
        fill: #06f;
      }

      .cls-3 {
        opacity: .3;
      }
    </style>
  </defs>
  <rect class="cls-2" y="0" width="2000" height="2000"/>
  <g class="cls-3">
    <path class="cls-1" d="M1845.62,276.16c-340.92,498.96-702.02,873.9-1051.57,1154.82-188.63,152.28-373.8,276.88-550.88,379.56-201.32,115.94-391.09,203.63-562.42,268.81-194.4,74.41-364.56,121.14-500.12,149.4-211.11,45.57-337.44,47.87-337.44,47.87,0,0-70.95,325.34-135.56,600.49,29.42-4.62,58.26-9.23,87.11-14.42,168.43-29.42,329.37-70.38,482.24-121.14,176.5-57.68,343.21-127.48,500.12-207.66,166.14-83.64,321.3-178.24,466.08-279.76,204.19-143.63,387.63-300.53,550.88-462.04,480.49-475.31,785.64-985.23,937.35-1276.54,72.66-139.59,110.17-229,114.22-239.38Z"/>
    <path class="cls-1" d="M889.46,2072.9v386.82C1710.6,1699.66,1914.19,330.4,1914.19,330.4c-512.37,1389.61-1024.73,1742.5-1024.73,1742.5Z"/>
  </g>
</svg>