<?xml version="1.0" encoding="UTF-8"?>
<svg id="Layer_1" data-name="Layer 1" xmlns="http://www.w3.org/2000/svg" viewBox="0 0 2000 2000">
  <defs>
    <style>
      .cls-1 {
        fill: #fff;
      }

      .cls-2 {
        fill: #006a4e;
      }

      .cls-3 {
        opacity: .2;
      }
    </style>
  </defs>
  <rect class="cls-2" x="0" width="2000" height="2000"/>
  <g class="cls-3">
    <path class="cls-1" d="M-36.08,2080.27v53.38c0,46.75-50.6,75.97-91.09,52.59l-211.47-122.11c-18.79-10.85-30.35-30.9-30.35-52.58v-262.31c0-21.7,11.57-41.75,30.35-52.58l408.83-236.04c9.39-5.42,15.18-15.44,15.18-26.29v-.8c0-14.95,16.19-24.3,29.14-16.83l46.22,26.69c40.48,23.36,40.48,81.81,0,105.18l-377.92,218.19c-18.79,10.85-30.36,30.89-30.36,52.58v122.11c0,21.7,11.58,41.75,30.37,52.59l120.91,69.8c9.39,5.42,20.97,5.42,30.36,0l.68-.39c12.96-7.48,29.15,1.87,29.15,16.83"/>
    <path class="cls-1" d="M177.67,1032.44l-46.23-26.7c-40.48-23.37-40.48-81.81,0-105.18l211.48-122.08c18.79-10.85,41.93-10.85,60.72,0l227.17,131.16c18.79,10.85,30.36,30.89,30.36,52.58v472.07c0,10.85,5.79,20.87,15.18,26.29l.69.4c12.96,7.47,12.96,26.17,0,33.66l-46.21,26.69c-40.48,23.37-91.09-5.85-91.09-52.59v-436.38c0-21.7-11.58-41.75-30.36-52.58l-105.75-61.06c-18.79-10.85-41.94-10.85-60.73,0l-120.91,69.82c-9.39,5.42-15.17,15.44-15.17,26.29v.79c0,14.96-16.19,24.3-29.15,16.83"/>
    <path class="cls-1" d="M568.87,2203.69l46.23,26.7c40.48,23.37,40.48,81.81,0,105.18l-211.48,122.08c-18.79,10.85-41.94,10.85-60.73,0l-227.16-131.16c-18.79-10.85-30.36-30.89-30.36-52.58v-472.07c0-10.85-5.79-20.87-15.18-26.29l-.69-.4c-12.96-7.47-12.96-26.17,0-33.66l46.21-26.69c40.48-23.37,91.09,5.84,91.09,52.59v436.38c0,21.7,11.58,41.75,30.36,52.58l105.75,61.06c18.79,10.85,41.94,10.85,60.73,0l120.9-69.82c9.4-5.42,15.18-15.44,15.18-26.29v-.79c0-14.96,16.19-24.31,29.15-16.83"/>
    <path class="cls-1" d="M-231.67,1494.64l-46.23,26.7c-40.48,23.37-91.09-5.85-91.09-52.59v-244.18c.01-21.7,11.59-41.74,30.37-52.58l227.16-131.16c18.8-10.85,41.94-10.85,60.73,0l408.82,236.03c9.39,5.42,20.97,5.42,30.36,0l.69-.4c12.96-7.47,29.15,1.87,29.15,16.83v53.36c0,46.75-50.6,75.97-91.09,52.59l-377.92-218.18c-18.79-10.85-41.94-10.85-60.73,0l-105.74,61.05c-18.8,10.85-30.36,30.9-30.36,52.59v139.61c.01,10.85,5.8,20.87,15.19,26.29l.68.39c12.96,7.47,12.96,26.18,0,33.66"/>
    <path class="cls-1" d="M978.24,1741.49l46.23-26.7c40.48-23.37,91.09,5.85,91.09,52.59v244.18c-.01,21.7-11.59,41.74-30.37,52.58l-227.16,131.16c-18.8,10.85-41.94,10.85-60.73,0l-408.82-236.03c-9.39-5.42-20.97-5.42-30.36,0l-.69.4c-12.96,7.47-29.15-1.87-29.15-16.83v-53.36c0-46.75,50.6-75.97,91.09-52.59l377.92,218.18c18.79,10.85,41.94,10.85,60.73,0l105.74-61.05c18.8-10.85,30.36-30.9,30.36-52.59v-139.61c-.01-10.85-5.8-20.87-15.19-26.29l-.68-.39c-12.95-7.47-12.96-26.18,0-33.66"/>
    <path class="cls-1" d="M782.65,1155.86v-53.38c0-46.75,50.6-75.97,91.09-52.59l211.47,122.11c18.79,10.85,30.35,30.89,30.35,52.58v262.31c0,21.7-11.57,41.74-30.36,52.58l-408.81,236.04c-9.39,5.41-15.18,15.44-15.18,26.29v.8c0,14.95-16.19,24.3-29.14,16.83l-46.22-26.69c-40.48-23.36-40.48-81.81,0-105.18l377.92-218.19c18.79-10.85,30.36-30.89,30.36-52.58v-122.11c0-21.7-11.58-41.75-30.37-52.59l-120.91-69.8c-9.39-5.42-20.97-5.42-30.36,0l-.68.39c-12.96,7.48-29.15-1.87-29.15-16.83"/>
  </g>
</svg>