<?xml version="1.0" encoding="UTF-8"?>
<svg id="Layer_1" xmlns="http://www.w3.org/2000/svg" xmlns:xlink="http://www.w3.org/1999/xlink" version="1.1" viewBox="0 0 2000 2000">
  <!-- Generator: Adobe Illustrator 29.1.0, SVG Export Plug-In . SVG Version: 2.1.0 Build 142)  -->
  <defs>
    <style>
      .st0 {
        fill: none;
      }

      .st1 {
        fill: #3a71fc;
      }

      .st2 {
        fill: #030b30;
      }

      .st3 {
        opacity: .6;
      }

      .st4 {
        clip-path: url(#clippath);
      }
    </style>
    <clipPath id="clippath">
      <rect class="st0" y="0" width="2000" height="2000"/>
    </clipPath>
  </defs>
  <g class="st4">
    <rect class="st2" width="2000" height="2000"/>
    <g class="st3">
      <g>
        <path class="st1" d="M1299.8-55.4l-510.9,1149.7c-41.4,93-133.6,153.1-235.6,153.1H-395.9l58.2-139H298c71.9,0,137.2-42.2,166.6-107.9L938.1-55.4h361.7Z"/>
        <path class="st1" d="M788.5-55.4l-452,1001.4c-20.8,46.2-66.8,75.8-117.5,75.8H-294.6l64-153.4H76.3c21.1,0,40.1-12.2,48.9-31.4L534.2-55.4h254.3Z"/>
        <path class="st1" d="M1920-55.4l-581.3,1324.2c-61.7,140.5-200.7,231.3-354.1,231.3H-491.1l63.9-153.4H628.1c123.4,0,235.1-72.7,285-185.6L1450.8-55.4h469.1Z"/>
      </g>
    </g>
  </g>
</svg>