<?xml version="1.0" encoding="UTF-8"?><svg id="Layer_1" xmlns="http://www.w3.org/2000/svg" viewBox="0 0 1000 1000"><circle cx="500" cy="500" r="500" fill="#972b1c"/><path d="M810.58,633.64h-57.76c-1.89,0-2.93,1.08-2.93,3.04v4.74c0,1.96,1.04,3.04,2.93,3.04h57.76c1.82,0,2.82-1.08,2.82-3.04v-4.74c0-1.96-1-3.04-2.82-3.04Z" fill="#fff"/><path d="M269.68,633.64h-57.76c-1.89,0-2.93,1.08-2.93,3.04v4.74c0,1.96,1.04,3.04,2.93,3.04h57.76c1.82,0,2.82-1.08,2.82-3.04v-4.74c0-1.96-1-3.04-2.82-3.04Z" fill="#fff"/><path d="M302.51,602.22h9.59c1.62,0,2.93,1.31,2.93,2.93v67.8c0,1.62-1.32,2.93-2.93,2.93h-9.59c-1.62,0-2.93-1.31-2.93-2.93v-67.8c0-1.62,1.32-2.93,2.93-2.93Z" fill="#fff"/><path d="M379.04,602.22h-9.36c-1.89,0-2.93,1.04-2.93,2.93v40.55l-22.17-41.6c-.63-1.25-1.86-1.89-3.66-1.89h-8.46c-1.89,0-2.93,1.04-2.93,2.93v67.8c0,1.89,1.04,2.93,2.93,2.93h9.36c1.89,0,2.93-1.04,2.93-2.93v-40.45l21.95,40.82c.85,1.71,2.24,2.57,4.11,2.57h8.24c1.89,0,2.93-1.04,2.93-2.93v-67.8c0-1.89-1.04-2.93-2.93-2.93Z" fill="#fff"/><path d="M435.11,602.22h-35.99c-1.89,0-2.93,1.04-2.93,2.93v67.8c0,1.89,1.04,2.93,2.93,2.93h9.59c1.89,0,2.93-1.04,2.93-2.93v-24.03c0-.44.13-.67.79-.67h19.29c1.89,0,2.93-1.08,2.93-3.04v-7.56c0-1.89-1.04-2.93-2.93-2.93h-19.29c-.59,0-.79-.2-.79-.79v-17.49c0-.45.12-.68.79-.68h22.67c1.82,0,2.82-1.04,2.82-2.93v-7.67c0-1.89-1-2.93-2.82-2.93Z" fill="#fff"/><path d="M496.95,602.22h-9.48c-1.89,0-2.93,1.04-2.93,2.93v51.1c0,2.24-.46,3.84-1.36,4.73-.9.9-2.49,1.36-4.73,1.36h-7.78c-2.17,0-3.72-.46-4.62-1.36-.9-.9-1.36-2.49-1.36-4.73v-51.1c0-1.89-1.04-2.93-2.93-2.93h-9.59c-1.89,0-2.93,1.04-2.93,2.93v51.78c0,6.07,1.69,10.8,5.02,14.05,3.33,3.25,8.09,4.9,14.16,4.9h12.41c5.99,0,10.73-1.67,14.1-4.96,3.37-3.29,5.08-8,5.08-14v-51.89c0-1.82-1.08-2.82-3.05-2.82Z" fill="#fff"/><path d="M553.91,635.32c-4.99-2.04-10.78-3.35-17.2-3.88-5.88-.5-8.73-2.31-8.73-5.53v-2.14c0-3.22.5-5.39,1.48-6.44.97-1.04,2.94-1.57,5.85-1.57h4.4c2.84,0,4.8.48,5.82,1.43,1,.94,1.51,2.81,1.51,5.57v.68c0,1.89,1.04,2.93,2.93,2.93h9.59c1.89,0,2.93-1.04,2.93-2.93v-2.15c0-5.99-1.73-10.72-5.13-14.05-3.4-3.33-8.21-5.01-14.27-5.01h-11.28c-5.99,0-10.76,1.69-14.16,5.01-3.41,3.33-5.13,8.06-5.13,14.05v3.95c0,4.75.92,8.7,2.73,11.74,1.82,3.06,4.14,5.16,6.88,6.22,2.66,1.02,5.55,1.87,8.6,2.51,3.05.64,5.94,1.08,8.58,1.3,2.53.22,4.66.89,6.34,2,1.61,1.07,2.4,2.55,2.4,4.55v1.35c0,2.91-.53,4.9-1.58,5.91-1.05,1.02-2.99,1.53-5.76,1.53h-5.3c-2.85,0-4.81-.48-5.82-1.43-1-.93-1.51-2.77-1.51-5.45v-.9c0-1.89-1.04-2.93-2.93-2.93h-9.59c-1.89,0-2.93,1.04-2.93,2.93v2.26c0,6,1.73,10.73,5.13,14.05,3.4,3.33,8.17,5.01,14.16,5.01h12.3c5.99,0,10.75-1.69,14.16-5.01,3.41-3.33,5.13-8.06,5.13-14.05v-3.83c0-4.59-.92-8.43-2.73-11.41-1.82-2.98-4.13-5.09-6.87-6.26Z" fill="#fff"/><path d="M579.54,602.22h9.59c1.62,0,2.93,1.31,2.93,2.93v67.8c0,1.62-1.32,2.93-2.93,2.93h-9.59c-1.62,0-2.93-1.31-2.93-2.93v-67.8c0-1.62,1.32-2.93,2.93-2.93Z" fill="#fff"/><path d="M637.63,602.22h-12.63c-6.07,0-10.83,1.65-14.16,4.9-3.33,3.25-5.02,7.98-5.02,14.05v35.76c0,6.07,1.69,10.8,5.02,14.05,3.33,3.25,8.09,4.9,14.16,4.9h12.63c6.06,0,10.83-1.65,14.16-4.9,3.33-3.26,5.02-7.98,5.02-14.05v-35.76c0-6.07-1.69-10.8-5.02-14.05-3.33-3.25-8.09-4.9-14.16-4.9ZM641.35,621.85v34.41c0,2.24-.46,3.84-1.36,4.73-.9.9-2.49,1.36-4.73,1.36h-8.01c-2.24,0-3.81-.45-4.67-1.35-.87-.9-1.31-2.49-1.31-4.74v-34.41c0-2.25.44-3.84,1.31-4.74.86-.9,2.43-1.35,4.67-1.35h8.01c2.24,0,3.83.46,4.73,1.36.9.9,1.36,2.49,1.36,4.73Z" fill="#fff"/><path d="M719.75,602.22h-9.36c-1.89,0-2.93,1.04-2.93,2.93v40.55l-22.17-41.6c-.63-1.25-1.86-1.89-3.66-1.89h-8.46c-1.89,0-2.93,1.04-2.93,2.93v67.8c0,1.89,1.04,2.93,2.93,2.93h9.36c1.89,0,2.93-1.04,2.93-2.93v-40.45l21.95,40.82c.85,1.71,2.24,2.57,4.11,2.57h8.24c1.89,0,2.93-1.04,2.93-2.93v-67.8c0-1.89-1.04-2.93-2.93-2.93Z" fill="#fff"/><path d="M267.56,561.23c-2.82-1.71-12.54-6.03-19.64-9.18-2.78-1.23-5.23-2.32-6.87-3.07l-1.86-.86v-6.21c-12.29,8.52-26.24,13.16-39.88,13.16-20.06,0-37.22-9.67-48.33-27.23-10.13-12.29-9.06-47.59-8.2-75.98.35-11.7.66-21.8.06-27.47l-.38-3.54h3.56c7.71,0,14.93,3.02,20.33,8.51,5.4,5.48,8.3,12.74,8.18,20.44l-.04,2.36c-.4,24.53-1.07,65.58,3.1,72.54l.17.29.11.32c4.88,14.22,16.21,16.35,22.52,16.35,11.98,0,24.36-7.15,30.1-17.38l.13-.23.17-.2c9.9-12.34,9.11-37.12,8.48-57.03-.25-7.87-.49-15.31-.05-21.19l.22-2.96h33v121.52l-4.86-2.96Z" fill="#fff"/><path d="M354.66,559.14c-38.06-13-76.47-40.51-70.12-78.77,4.16-25.06,27.02-42.55,55.58-42.55,14.7,0,30.28,4.73,45.18,13.71,1.76-.76,3.56-1.56,5.41-2.37,12.4-5.48,26.44-11.7,40.54-11.7,4.67,0,9.13.7,13.25,2.09,22.98,7.58,36.3,24.74,36.54,47.08.31,29.38-21.64,60.24-49.98,70.26l-.52.18h-.57c-1.93,0-4.19-.08-27.78-24.26l-4.73-4.85,6.75-.58c24.43-2.08,60.56-22.6,61.59-50.02.27-3.59-.9-6.75-3.47-9.51-4.37-4.71-12.57-7.87-20.41-7.87-.53,0-1.05.02-1.56.05-27.19,1.09-43.38,16.6-49.54,47.41l-.76,3.8-32.32-13.24-.31-1.73c-1.43-8.06,3.18-15.94,6.89-22.27,2.04-3.49,4.84-8.26,4.04-9.66-.21-.37-1.77-2.2-11.85-2.2-.58,0-1.19,0-1.81.02-.7-.03-1.19-.04-1.67-.04-18.47,0-35.78,16.56-36.31,34.74v.23c-1.69,16.48,17.79,34.66,32.01,47.94,3.37,3.14,6.55,6.11,9.24,8.85l-3.31,5.27Z" fill="#fff"/><path d="M493.37,545.57l-.11-1.97c-.96-16.97-.37-36.21.25-56.57,1.97-64.23,4.2-137.03-40.95-172.97l-7.29-5.81,9.32.11c17.61.2,32.26,6.35,43.54,18.29,25.83,27.34,26.5,77.33,25.58,97.56v40.91c11.19-11.99,26.39-24.78,43.55-25.08.52-.02,1.12-.04,1.73-.04,12.17,0,24.71,5.66,34.41,15.54,9.95,10.13,15.55,23.06,15.37,35.49.71,12.33-6.92,28.56-19.93,42.4-12.71,13.52-27.56,21.59-39.74,21.59h0c-.59,0-1.18-.02-1.77-.06-15.44-1.54-21.55-7.73-32.63-18.96-.66-.67-1.34-1.36-2.04-2.06v24.28l-29.28-12.64ZM552.7,465.31c-9.09,0-16.62,3.81-22.37,11.32-5.38,6.29-2.05,16.17.41,21.51,7.93,17.25,29.08,36.55,45.5,36.55h0c14.86,0,19.87-16.28,21.44-30.06-1.48-19.16-24.49-39.31-44.98-39.31Z" fill="#fff"/><path d="M700.73,554.57c-33.43,0-72.45-12.22-77.2-31.97-1.81-7.5.72-18.7,21.59-30.85-8.35-4.79-12.92-11.78-12.47-19.47.63-10.9,11.21-20.51,26.96-24.47,10.48-3.29,22.95-5.12,34.92-5.12,10.91,0,20.71,1.48,29.15,4.41,4.54,1.08,7.83,2.43,10.03,4.11l1.26.96v22.12l-4.48-1.97c-8.5-3.73-17.8-5.61-27.64-5.61-23.47,0-40.63,10.79-40.63,16.4,0,2.24,3.36,3.85,5.36,4.61,5.12,1.95,13.29,2.98,23.61,2.98,4.51,0,9.5-.19,14.84-.58l3.43-.24v18.78l-3.18.02c-40.85.21-51.73,9.63-51.71,15.17.02,6.89,13.83,14.9,31.61,14.9,13.99,0,40.71-4.76,62.39-36.65l5.84-8.59v45.32l-1.14.96c-11.3,9.53-29.96,14.78-52.53,14.78Z" fill="#fff"/><path d="M766.9,545.36v-124.48l3.46-.03c8.1,0,15.49,3.34,20.8,9.4,4.42,5.04,7.1,11.68,7.67,18.62,9.73-6.54,23.66-10.57,37.51-10.57,24.79,0,41.3,12.67,43.1,33.06.35,13.44-18.27,28.96-27.94,33.22l-2.14.94-26.03-29.5,7.04-.04c10.91-.06,22.45-10.43,22.77-17.85.24-5.57-6.45-7.43-12.23-8-9.09.66-19.23,6.7-27.86,16.59-9.45,10.83-15.09,24.04-14.38,33.64v.24s0,61.32,0,61.32l-31.78-16.55Z" fill="#fff"/><path d="M878.67,412.34c-.73-3.77-3.09-6.63-5.17-9.15-1.7-2.06-3.31-4-3.92-6.2-.25-1.95-1.79-3.77-4.85-3.77s-7.33,1.62-13.18,3.9c-2.28.89-5.11,2-5.95,2.11l-5.99.82,4.06,4.49c2.18,2.41,2.81,4.62,3.12,7.39v.11s.03.11.03.11c1.03,5.6,4.44,8.69,9.58,8.69,3.43,0,7.19-1.33,10.82-2.62,2.92-1.03,5.94-2.1,7.93-2.1h.23s4.06.2,4.06.2l-.77-3.99Z" fill="#fff"/><path d="M500,41.84c-252.63,0-458.16,205.53-458.16,458.16s205.53,458.16,458.16,458.16,458.16-205.53,458.16-458.16S752.63,41.84,500,41.84ZM500,949.14c-247.66,0-449.14-201.48-449.14-449.14S252.34,50.86,500,50.86s449.14,201.48,449.14,449.14-201.48,449.14-449.14,449.14Z" fill="#fff"/></svg>