<?xml version="1.0" encoding="UTF-8"?>
<svg id="Layer_1" data-name="Layer 1" xmlns="http://www.w3.org/2000/svg" viewBox="0 0 2000 2000">
  <defs>
    <style>
      .cls-1 {
        fill-rule: evenodd;
      }

      .cls-1, .cls-2 {
        fill: #fff;
      }

      .cls-3 {
        fill: #f6b5d1;
      }
    </style>
  </defs>
  <rect class="cls-3" width="2000" height="2000"/>
  <g>
    <path class="cls-2" d="M-659.86,1349.66c141.66-50.14,97.98-253.66,246.88-321.63,168.11-76.74,295.85,147.81,599.17,110.03,45.3-5.64,206.55-29.38,318.93-160.31,32.67-38.06,115.26-134.29,94.78-236.66-28.62-143.01-225.39-133.15-277.6-289.68-36.17-108.43,11.23-254.1,99.92-306.14,101.43-59.51,175.82,51.01,348.23,19.95,205.14-36.95,330.33-234.95,360.03-281.93,54.9-86.83,95.43-139.99,88.08-210.23-17.68-169-285.19-328.39-447.77-267.04-184.4,69.58-85.3,367.08-330.25,550.77C266.03,87.67,110.68,5.23,10.36,161.64c-82,127.86-22.42,236.04-124.15,332.74-101.82,96.79-206.58,31.26-310.67,132.06-96.78,93.72-39.7,182.77-118.01,287.54-147.05,196.75-498.73,79.98-525.83,179.3-26.52,97.2,239.03,316.34,408.43,256.38Z"/>
    <path class="cls-2" d="M1560.74-601.74c-143.73,103.79-203.55,362.88-113.78,504.59,84.13,132.8,249.29,83.04,313.1,221.82,55.29,120.25-42.59,214.43,37.05,373.73,15.42,30.85,45.51,89.01,107.45,113.64,77.22,30.71,157.63-9.11,191.54-25.91,180.24-89.26,450.47-479.86,296.83-836.77-145.19-337.29-611.31-510.62-832.2-351.11Z"/>
    <path class="cls-2" d="M1450.16,1548.2c-78.38,10.41-136.17,94.6-147.9,111.69-44.99,65.55-27.82,95.64-58.09,163.8-71.26,160.46-241.49,162.78-251.88,271.63-4.75,49.78,25.68,103.39,63.23,129.67,164.05,114.79,674.42-144.85,666.08-403.24-4.4-136.32-153.71-289.17-271.44-273.54Z"/>
    <path class="cls-2" d="M839.04,990.02c6.05,34.61-33.39,71.23-71.43,81.71-45.66,12.58-102.35-8.89-107.43-36.58-7.16-39.09,85.09-109.12,142.86-85.7,15.91,6.45,32.64,21.37,36,40.57Z"/>
    <ellipse class="cls-2" cx="632.45" cy="1153.44" rx="27.84" ry="24.01" transform="translate(-335.27 262.41) rotate(-18.63)"/>
    <circle class="cls-2" cx="608.17" cy="1005.32" r="11.67"/>
    <path class="cls-2" d="M1314.05,988.45c-47.52-9.41-78.81,26.99-76.69,64.45,2.55,44.96,53.97,104.31,92.09,112.07,53.81,10.95,106.68-75.65,52.29-136.28-14.98-16.69-41.32-35.02-67.69-40.24Z"/>
    <path class="cls-2" d="M1318.08,1236.22c-.98,12.34-13.19,22.19-27.27,22.01-14.08-.18-24.7-10.33-23.72-22.67.98-12.34,13.19-22.19,27.27-22.01,14.08.18,24.7,10.33,23.72,22.67Z"/>
    <ellipse class="cls-2" cx="1291.82" cy="1323.25" rx="10.41" ry="11.16" transform="translate(-341.27 455.61) rotate(-17.71)"/>
    <ellipse class="cls-2" cx="1353.85" cy="1269.52" rx="10.41" ry="11.16" transform="translate(-321.99 471.93) rotate(-17.71)"/>
    <path class="cls-2" d="M1278.5,842.96c-235.14,164.14,18.92,742.68-210.92,890.81-65.57,42.26-141.67,30.9-159.72,27.63-126.78-22.97-240.68-162.73-250.63-297.45-18.31-248.05,301.13-397.37,240.87-551.76-38.59-98.88-189.75-86.32-222.27-210.35-14.18-54.08-4.93-130.75,41.48-175.59,97.41-94.12,272.25,35.47,368.96-55.44,67.64-63.58,19.9-161.5,105.43-220.78,53.73-37.24,119.64-29.55,133.98-27.87,0,0,72.67,9.27,141.48,72.2,81.48,74.52,183.33,336.46,74.48,463.65-73.99,86.46-164.29,15.96-263.12,84.95Z"/>
    <path class="cls-1" d="M-66.86,1501.34c205.97-20,269.45,14.64,287.46,52.26,40.43,84.47-134.04,213.99-81.95,326.84,18.92,40.99,65.1,74.09,110.6,77.65,107.33,8.4,138.38-153.2,290.28-185.99,13.62-2.94,113.84-22.99,189.61,38.38,58.98,47.76,88.01,132.59,73.13,204.28-22.61,108.93-134.15,127.59-132.5,206.08,1.75,83.66,129.37,107.24,127.87,158.12-3.19,107.92-588.2,374.26-900.85,97.22-230.81-204.53-256.92-655.36,36.35-974.85Z"/>
    <path class="cls-1" d="M1745.61,3136.85c-256.61-130.83-370.37-559.4-226.6-756.66,98.76-135.51,247.79-64.08,385.86-227.8,92.04-109.13,140.88-277.3,110.48-427.34-56.02-276.44-351.16-343.84-323.65-507.05,21.18-125.65,213.41-188.57,281.18-210.75,206.33-67.54,498.74-53.33,653.33,84.72,455.61,406.86-125.48,2032.5-673.74,2087.52-99.6,10-187.75-32.89-206.87-42.64Z"/>
  </g>
</svg>